<?xml version="1.0" encoding="UTF-8" standalone="no"?>
<!-- Generated by IcoMoon.io -->

<svg
   xmlns:dc="http://purl.org/dc/elements/1.1/"
   xmlns:cc="http://creativecommons.org/ns#"
   xmlns:rdf="http://www.w3.org/1999/02/22-rdf-syntax-ns#"
   xmlns:svg="http://www.w3.org/2000/svg"
   xmlns="http://www.w3.org/2000/svg"
   xmlns:sodipodi="http://sodipodi.sourceforge.net/DTD/sodipodi-0.dtd"
   xmlns:inkscape="http://www.inkscape.org/namespaces/inkscape"
   version="1.1"
   width="20"
   height="20"
   viewBox="0 0 20 20"
   id="svg3688"
   sodipodi:docname="lnr-spell-check.svg"
   inkscape:version="0.92.1 r15371">
  <metadata
     id="metadata3694">
    <rdf:RDF>
      <cc:Work
         rdf:about="">
        <dc:format>image/svg+xml</dc:format>
        <dc:type
           rdf:resource="http://purl.org/dc/dcmitype/StillImage" />
      </cc:Work>
    </rdf:RDF>
  </metadata>
  <defs
     id="defs3692">
    <inkscape:path-effect
       effect="spiro"
       id="path-effect3702"
       is_visible="true" />
  </defs>
  <sodipodi:namedview
     pagecolor="#ffffff"
     bordercolor="#666666"
     borderopacity="1"
     objecttolerance="10"
     gridtolerance="10"
     guidetolerance="10"
     inkscape:pageopacity="0"
     inkscape:pageshadow="2"
     inkscape:window-width="1920"
     inkscape:window-height="1017"
     id="namedview3690"
     showgrid="false"
     inkscape:zoom="39.558847"
     inkscape:cx="8.9981662"
     inkscape:cy="8.8655579"
     inkscape:window-x="-8"
     inkscape:window-y="-8"
     inkscape:window-maximized="1"
     inkscape:current-layer="svg3688" />
  <rect
     style="fill:#1e1e1e;fill-opacity:1;stroke:none;stroke-width:0.40000001;stroke-miterlimit:4;stroke-dasharray:none;stroke-opacity:1"
     id="rect4510"
     width="20"
     height="20"
     x="0"
     y="0" />
  <path
     d="m 11.700124,9.8341644 c -0.128,0 -0.256,-0.049 -0.354,-0.1460004 l -2.9999994,-3 c -0.195,-0.195 -0.195,-0.512 0,-0.707 0.195,-0.195 0.512,-0.195 0.707,0 l 2.6459994,2.646 6.646,-6.6460001 c 0.195,-0.195 0.512,-0.195 0.707,0 0.195,0.1950001 0.195,0.5120001 0,0.7070001 l -7,7 c -0.098,0.098 -0.226,0.1460004 -0.354,0.1460004 z"
     id="path3686"
     inkscape:connector-curvature="0"
     style="fill:#d4d4d4;fill-opacity:1" />
  <text
     xml:space="preserve"
     style="font-style:normal;font-variant:normal;font-weight:normal;font-stretch:normal;font-size:10.66666698px;line-height:2;font-family:Consolas;-inkscape-font-specification:Consolas;letter-spacing:0px;word-spacing:0px;fill:#1e88db;fill-opacity:1;stroke:none;"
     x="0.38880381"
     y="16.598314"
     id="text3698"><tspan
       sodipodi:role="line"
       id="tspan3696"
       x="0.38880381"
       y="16.598314">abc</tspan></text>
  <path
     style="fill:none;stroke:#ff0000;stroke-width:0.40000001;stroke-linecap:butt;stroke-linejoin:miter;stroke-miterlimit:4;stroke-dasharray:none;stroke-opacity:0.94117647"
     d="m 1.1906906,18.343594 c 0.264274,-0.51388 0.7372739,-0.9165 1.2867671,-1.095304 0.5494932,-0.178803 1.1688534,-0.131633 1.6849311,0.128323 0.3408248,0.171679 0.6310014,0.427654 0.9521479,0.633809 0.1605732,0.103078 0.3301568,0.194233 0.5116479,0.253138 0.1814911,0.0589 0.3758078,0.08476 0.564506,0.05645 0.19044,-0.02858 0.3693472,-0.111146 0.5320305,-0.214191 0.1626832,-0.103044 0.3111072,-0.2267 0.4620816,-0.346243 0.1509744,-0.119544 0.3060516,-0.235993 0.4782394,-0.322221 0.1721879,-0.08623 0.3636361,-0.141458 0.5559504,-0.131496 0.1918788,0.0099 0.3759162,0.08419 0.5397116,0.184626 0.1637955,0.100435 0.309878,0.226773 0.4561653,0.351337 0.1462873,0.124564 0.2946146,0.248672 0.461573,0.343756 0.1669584,0.09509 0.3551466,0.160505 0.5472666,0.158017 0.189482,-0.0025 0.37342,-0.0708 0.536741,-0.166898 0.163321,-0.0961 0.308618,-0.219492 0.453112,-0.342093 0.144494,-0.122601 0.290041,-0.245741 0.453714,-0.341244 0.163673,-0.0955 0.34807,-0.162853 0.537565,-0.163916 0.186572,-0.001 0.369044,0.06222 0.531739,0.153552 0.162695,0.09133 0.308026,0.210153 0.451685,0.329201 0.143658,0.119047 0.287375,0.239527 0.4478,0.334785 0.160424,0.09526 0.339921,0.164996 0.526323,0.173028 0.191603,0.0083 0.381621,-0.04917 0.552193,-0.136839 0.170572,-0.08766 0.324001,-0.204842 0.474435,-0.323793 0.150434,-0.118952 0.299544,-0.240786 0.464045,-0.339371 0.164502,-0.09859 0.346578,-0.173848 0.537629,-0.190563 0.220015,-0.01925 0.446212,0.0425 0.625929,0.170869 0.179717,0.128369 0.311489,0.322313 0.364637,0.536678"
     id="path3700"
     inkscape:connector-curvature="0"
     inkscape:path-effect="#path-effect3702"
     inkscape:original-d="m 1.1906906,18.343594 c 0.9915661,-0.323327 1.9821321,-0.645654 2.9716982,-0.966981 0.989566,-0.321327 1.3532012,0.627931 2.0283018,0.943396 0.6751007,0.315465 1.3532013,-0.677101 2.0283019,-1.014151 0.6751007,-0.33705 1.337478,0.690824 2.0047165,1.037736 0.667239,0.346912 1.321755,-0.677101 1.981132,-1.014151 0.659377,-0.33705 1.306031,0.659377 1.957547,0.990566 0.651516,0.331189 1.353201,-0.661377 2.028302,-0.990566 0.675101,-0.329189 0.661377,0.470698 0.990566,0.707547" />
</svg>
