<?xml version="1.0" encoding="UTF-8" standalone="no"?>
<!-- Generated by IcoMoon.io -->

<svg
   xmlns:dc="http://purl.org/dc/elements/1.1/"
   xmlns:cc="http://creativecommons.org/ns#"
   xmlns:rdf="http://www.w3.org/1999/02/22-rdf-syntax-ns#"
   xmlns:svg="http://www.w3.org/2000/svg"
   xmlns="http://www.w3.org/2000/svg"
   xmlns:sodipodi="http://sodipodi.sourceforge.net/DTD/sodipodi-0.dtd"
   xmlns:inkscape="http://www.inkscape.org/namespaces/inkscape"
   version="1.1"
   width="128"
   height="128"
   viewBox="0 0 128 128"
   id="svg3688"
   sodipodi:docname="icon.svg"
   inkscape:version="0.92.1 r15371">
  <metadata
     id="metadata3694">
    <rdf:RDF>
      <cc:Work
         rdf:about="">
        <dc:format>image/svg+xml</dc:format>
        <dc:type
           rdf:resource="http://purl.org/dc/dcmitype/StillImage" />
        <dc:title></dc:title>
      </cc:Work>
    </rdf:RDF>
  </metadata>
  <defs
     id="defs3692">
    <inkscape:path-effect
       effect="spiro"
       id="path-effect3702"
       is_visible="true" />
  </defs>
  <sodipodi:namedview
     pagecolor="#ffffff"
     bordercolor="#666666"
     borderopacity="1"
     objecttolerance="10"
     gridtolerance="10"
     guidetolerance="10"
     inkscape:pageopacity="0"
     inkscape:pageshadow="2"
     inkscape:window-width="1920"
     inkscape:window-height="1017"
     id="namedview3690"
     showgrid="false"
     inkscape:zoom="4.9448559"
     inkscape:cx="61.334859"
     inkscape:cy="60.12046"
     inkscape:window-x="-8"
     inkscape:window-y="-8"
     inkscape:window-maximized="1"
     inkscape:current-layer="svg3688" />
  <rect
     style="fill:#1e1e1e;fill-opacity:1;stroke:none;stroke-width:2.55999994;stroke-miterlimit:4;stroke-dasharray:none;stroke-opacity:1"
     id="rect4510"
     width="128"
     height="128"
     x="0"
     y="8.4932061e-015" />
  <path
     d="m 74.875537,63.148776 c -0.819143,0 -1.638285,-0.312587 -2.265441,-0.931382 L 53.411447,43.079411 c -1.247912,-1.243969 -1.247912,-3.266216 0,-4.510185 1.247913,-1.243969 3.27657,-1.243969 4.524483,0 L 74.869137,55.448927 117.40055,13.051916 c 1.24791,-1.243969 3.27657,-1.243969 4.52448,0 1.24792,1.243969 1.24792,3.266215 0,4.510184 L 77.128178,62.217394 c -0.627155,0.625174 -1.446298,0.931382 -2.26544,0.931382 z"
     id="path3686"
     inkscape:connector-curvature="0"
     style="fill:#d4d4d4;fill-opacity:1;stroke-width:6.389431" />
  <text
     xml:space="preserve"
     style="font-style:normal;font-variant:normal;font-weight:normal;font-stretch:normal;font-size:68.15393829px;line-height:2;font-family:Consolas;-inkscape-font-specification:Consolas;letter-spacing:0px;word-spacing:0px;fill:#1e88db;fill-opacity:1;stroke:none;stroke-width:6.389431"
     x="2.4842353"
     y="106.46787"
     id="text3698"
     transform="scale(1.0015838,0.99841871)"><tspan
       sodipodi:role="line"
       id="tspan3696"
       x="2.4842353"
       y="106.46787"
       style="stroke-width:6.389431">abc</tspan></text>
  <path
     style="fill:none;stroke:#ff0000;stroke-width:2.55577254;stroke-linecap:butt;stroke-linejoin:miter;stroke-miterlimit:4;stroke-dasharray:none;stroke-opacity:0.94117647"
     d="m 7.6198849,117.43322 c 1.7000756,-3.28026 4.7283951,-5.84732 8.2427781,-6.98728 3.514384,-1.13995 7.472928,-0.83921 10.774755,0.8186 2.181052,1.09508 4.039856,2.72831 6.095689,4.0435 1.027917,0.6576 2.113161,1.23907 3.27415,1.61477 1.160988,0.3757 2.403558,0.5406 3.610381,0.35998 1.217907,-0.18228 2.362457,-0.70893 3.403794,-1.3663 1.041338,-0.65737 1.991956,-1.44633 2.958805,-2.20904 0.966849,-0.76271 1.959813,-1.50562 3.061633,-2.05563 1.10182,-0.55001 2.326159,-0.90219 3.555989,-0.83862 1.226983,0.0634 2.404088,0.53696 3.452432,1.17766 1.048343,0.64069 1.983997,1.44674 2.920956,2.24148 0.936958,0.79475 1.886905,1.58654 2.955381,2.19306 1.068476,0.60652 2.271998,1.02369 3.500516,1.00782 1.211666,-0.0157 2.38807,-0.45149 3.433326,-1.06453 1.045255,-0.61305 1.975834,-1.40029 2.901303,-2.18252 0.92547,-0.78223 1.857649,-1.56788 2.905146,-2.17708 1.047497,-0.60921 2.226832,-1.0387 3.43858,-1.04547 1.193081,-0.007 2.360081,0.39687 3.401267,0.97947 1.041186,0.58259 1.971896,1.34074 2.89197,2.10032 0.920073,0.75957 1.840529,1.52826 2.867298,2.1359 1.026768,0.60765 2.174882,1.05235 3.366886,1.10348 1.22532,0.0526 2.440519,-0.31386 3.531983,-0.87322 1.091465,-0.55935 2.073836,-1.30708 3.037194,-2.0661 0.963358,-0.75902 1.918348,-1.53638 2.971333,-2.16518 1.05299,-0.6288 2.21786,-1.10856 3.43971,-1.21467 1.40584,-0.12209 2.85078,0.2717 4.00029,1.09019 1.14952,0.81848 1.99434,2.05508 2.33889,3.42351"
     id="path3700"
     inkscape:connector-curvature="0"
     inkscape:path-effect="#path-effect3702"
     inkscape:original-d="m 7.6198849,117.43322 c 6.3455771,-2.06257 12.6847551,-4.11882 19.0175331,-6.16868 6.332778,-2.04981 8.65988,4.00577 12.98022,6.01825 4.320341,2.01243 8.659881,-4.31944 12.980221,-6.46959 4.320341,-2.15015 8.559258,4.40697 12.829285,6.62002 4.27003,2.21311 8.458638,-4.31944 12.678355,-6.4696 4.219716,-2.15015 8.358011,4.2064 12.527421,6.31917 4.16941,2.11277 8.659878,-4.21916 12.98022,-6.31917 4.32034,-2.10001 4.23252,3.00275 6.33918,4.5137" />
</svg>
